<svg width="24" height="24" viewBox="0 0 24 24" fill="none" xmlns="http://www.w3.org/2000/svg">
<path d="M19.4228 2.43066H4.5356C3.95074 2.43066 3.47223 2.86165 3.47223 3.39434V22.0576C3.47223 22.5903 3.81782 22.7259 4.24849 22.353L11.5485 16.048C11.7186 15.9027 12.0004 15.9027 12.1706 16.0431L19.7045 22.3676C20.1352 22.7307 20.4861 22.5903 20.4861 22.0576V3.39434C20.4861 2.86165 20.0129 2.43066 19.4228 2.43066ZM18.8911 19.7138L13.2499 14.9778C12.8565 14.6485 12.362 14.4838 11.8622 14.4838C11.3518 14.4838 10.8467 14.6533 10.4532 14.9923L5.06728 19.646V3.88344H18.8911V19.7138Z" fill="#333333"/>
<path fill-rule="evenodd" clip-rule="evenodd" d="M3.12499 3.38399C3.12499 2.62989 3.78961 2.08325 4.52177 2.08325H19.4365C20.1752 2.08325 20.8333 2.63092 20.8333 3.38399V22.0673C20.8333 22.3857 20.7261 22.7393 20.3931 22.8717C20.0793 22.9964 19.753 22.8432 19.5072 22.6362C19.5071 22.6361 19.5073 22.6363 19.5072 22.6362L11.9618 16.3071C11.9615 16.3069 11.9613 16.3067 11.9611 16.3065C11.9126 16.2673 11.8089 16.2681 11.7616 16.308C11.7614 16.3081 11.7613 16.3082 11.7611 16.3084L4.44927 22.6187C4.20691 22.8284 3.88203 22.9907 3.56611 22.8694C3.2289 22.74 3.12499 22.3818 3.12499 22.0673V3.38399ZM4.52177 2.75532C4.08205 2.75532 3.78787 3.07158 3.78787 3.38399V22.0673C3.78787 22.1553 3.80081 22.208 3.81137 22.2349C3.81554 22.2338 3.82037 22.2324 3.8259 22.2305C3.8675 22.2165 3.93336 22.1815 4.01898 22.1074L11.3329 15.7954L11.3343 15.7941C11.6278 15.5437 12.0875 15.5445 12.3801 15.7857L12.3822 15.7875L19.9307 22.1192C20.0154 22.1905 20.0806 22.2236 20.1219 22.2367C20.1308 22.2395 20.1379 22.2412 20.1434 22.2423C20.1548 22.2174 20.1704 22.1632 20.1704 22.0673V3.38399C20.1704 3.07056 19.8805 2.75532 19.4365 2.75532H4.52177ZM20.1593 22.2437C20.1593 22.2437 20.159 22.2437 20.1584 22.2438ZM3.79007 22.2381C3.79007 22.2381 3.79037 22.2381 3.79096 22.2382ZM4.723 3.53759H19.2353V20.4352L13.0413 15.2391C13.0413 15.239 13.0414 15.2392 13.0413 15.2391C12.7111 14.963 12.2917 14.8214 11.862 14.8214C11.4214 14.8214 10.9935 14.9677 10.6649 15.2506L4.723 20.3807V3.53759ZM5.38588 4.20965V18.9256L10.2359 14.7383C10.6956 14.3425 11.2798 14.1494 11.862 14.1494C12.4335 14.1494 13.005 14.3376 13.4631 14.7207L13.4635 14.721L18.5724 19.0068V4.20965H5.38588Z" fill="#333333"/>
</svg>
