<svg width="70" height="70" viewBox="0 0 70 70" fill="none" xmlns="http://www.w3.org/2000/svg">
<path d="M4.375 59.0579H65.625" stroke="white" stroke-width="3" stroke-linecap="round" stroke-linejoin="round"/>
<path d="M39.3734 59.0579V10.9329C39.3734 10.3527 39.1429 9.7963 38.7327 9.38607C38.3225 8.97583 37.7661 8.74536 37.1859 8.74536H10.9359C10.3558 8.74536 9.79935 8.97583 9.38912 9.38607C8.97888 9.7963 8.74841 10.3527 8.74841 10.9329V59.0579" stroke="white" stroke-width="3" stroke-linecap="round" stroke-linejoin="round"/>
<path d="M61.2484 59.0579V28.4329C61.2484 27.8527 61.0179 27.2963 60.6077 26.8861C60.1975 26.4758 59.6411 26.2454 59.0609 26.2454H39.3734" stroke="white" stroke-width="3" stroke-linecap="round" stroke-linejoin="round"/>
<path d="M18.5922 19.6829H26.2484" stroke="white" stroke-width="3" stroke-linecap="round" stroke-linejoin="round"/>
<path d="M21.8734 37.1829H29.5297" stroke="white" stroke-width="3" stroke-linecap="round" stroke-linejoin="round"/>
<path d="M18.5922 48.1204H26.2484" stroke="white" stroke-width="3" stroke-linecap="round" stroke-linejoin="round"/>
<path d="M49.2172 48.1204H51.4047" stroke="white" stroke-width="3" stroke-linecap="round" stroke-linejoin="round"/>
<path d="M49.2172 37.1829H51.4047" stroke="white" stroke-width="3" stroke-linecap="round" stroke-linejoin="round"/>
</svg>
