<svg width="70" height="70" viewBox="0 0 70 70" fill="none" xmlns="http://www.w3.org/2000/svg">
<path d="M4.375 32.8125H65.625" stroke="white" stroke-width="3" stroke-linecap="round" stroke-linejoin="round"/>
<path d="M61.25 48.125V56.875C61.25 57.4552 61.0195 58.0116 60.6093 58.4218C60.1991 58.832 59.6427 59.0625 59.0625 59.0625H52.5C51.9198 59.0625 51.3634 58.832 50.9532 58.4218C50.543 58.0116 50.3125 57.4552 50.3125 56.875V48.125" stroke="white" stroke-width="3" stroke-linecap="round" stroke-linejoin="round"/>
<path d="M19.6875 48.125V56.875C19.6875 57.4552 19.457 58.0116 19.0468 58.4218C18.6366 58.832 18.0802 59.0625 17.5 59.0625H10.9375C10.3573 59.0625 9.80094 58.832 9.3907 58.4218C8.98047 58.0116 8.75 57.4552 8.75 56.875V48.125" stroke="white" stroke-width="3" stroke-linecap="round" stroke-linejoin="round"/>
<path d="M61.25 32.8125L53.0774 14.4241C52.9055 14.0374 52.6252 13.7089 52.2704 13.4783C51.9156 13.2477 51.5015 13.125 51.0784 13.125H18.9216C18.4985 13.125 18.0844 13.2477 17.7296 13.4783C17.3748 13.7089 17.0945 14.0374 16.9226 14.4241L8.75 32.8125V48.125H61.25V32.8125Z" stroke="white" stroke-width="3" stroke-linecap="round" stroke-linejoin="round"/>
</svg>
