<svg width="40" height="40" viewBox="0 0 40 40" fill="none" xmlns="http://www.w3.org/2000/svg">
<path d="M20 25.3125C22.934 25.3125 25.3125 22.934 25.3125 20C25.3125 17.066 22.934 14.6875 20 14.6875C17.066 14.6875 14.6875 17.066 14.6875 20C14.6875 22.934 17.066 25.3125 20 25.3125Z" stroke="white" stroke-width="3" stroke-linecap="round" stroke-linejoin="round"/>
<path d="M27.5 5H12.5C8.35786 5 5 8.35786 5 12.5V27.5C5 31.6421 8.35786 35 12.5 35H27.5C31.6421 35 35 31.6421 35 27.5V12.5C35 8.35786 31.6421 5 27.5 5Z" stroke="white" stroke-width="3" stroke-linecap="round" stroke-linejoin="round"/>
<path d="M28.125 14.375C29.5057 14.375 30.625 13.2557 30.625 11.875C30.625 10.4943 29.5057 9.375 28.125 9.375C26.7443 9.375 25.625 10.4943 25.625 11.875C25.625 13.2557 26.7443 14.375 28.125 14.375Z" fill="white"/>
</svg>
