<svg width="70" height="70" viewBox="0 0 70 70" fill="none" xmlns="http://www.w3.org/2000/svg">
<path d="M34.8057 25.9846C36.0208 24.7694 37.6642 24.0794 39.3826 24.0628C41.101 24.0462 42.7574 24.7043 43.9959 25.8957C46.6463 28.4475 46.5835 32.7683 43.9819 35.3699L25.6571 53.1411C25.4489 53.343 25.2829 53.5844 25.1688 53.8511C25.0547 54.1178 24.9948 54.4045 24.9926 54.6946C24.9903 54.9847 25.0458 55.2723 25.1558 55.5408C25.2658 55.8092 25.4281 56.0531 25.6332 56.2582L33.4683 64.0932C33.8759 64.5009 34.4279 64.7311 35.0044 64.7339C35.5808 64.7367 36.1351 64.5119 36.5467 64.1083L54.7198 46.2871C63.2488 37.7582 63.4964 23.8667 55.0309 15.2748C53.0052 13.2182 50.5926 11.5829 47.9321 10.4631C45.2715 9.34325 42.4156 8.7611 39.529 8.75016C36.6424 8.73921 33.7822 9.2997 31.1132 10.3993C28.4442 11.4989 26.0192 13.1159 23.9781 15.157L5.90305 33.4533C5.49694 33.8643 5.26998 34.4194 5.27174 34.9973C5.27349 35.5751 5.50382 36.1288 5.91243 36.5374L13.7476 44.3726C13.9522 44.5772 14.1954 44.7392 14.4632 44.8492C14.7309 44.9592 15.0177 45.0149 15.3071 45.0132C15.5965 45.0116 15.8827 44.9525 16.1491 44.8394C16.4155 44.7263 16.6569 44.5615 16.8591 44.3544L34.8057 25.9846Z" stroke="white" stroke-width="3" stroke-linecap="round" stroke-linejoin="round"/>
<path d="M34.6649 44.4055L45.5444 55.285" stroke="white" stroke-width="3" stroke-linecap="round" stroke-linejoin="round"/>
<path d="M14.7537 24.4941L25.633 35.3734" stroke="white" stroke-width="3" stroke-linecap="round" stroke-linejoin="round"/>
</svg>
