<svg width="22" height="19" viewBox="0 0 22 19" fill="none" xmlns="http://www.w3.org/2000/svg">
<path fill-rule="evenodd" clip-rule="evenodd" d="M21.0768 0.963629C20.8654 0.592113 20.4676 0.377197 20.0498 0.377197L1.95781 0.390342C1.45396 0.390389 1.01714 0.70156 0.842518 1.16522L0.842352 1.16566C0.716641 1.50089 0.744828 1.86661 0.917436 2.16867L0.919847 2.17289L0.922381 2.17704C0.987342 2.28334 1.06983 2.38346 1.16974 2.47162L8.05618 8.41015L9.73467 17.3261L9.73479 17.3267C9.82651 17.8206 10.2089 18.1885 10.7046 18.2671C11.1952 18.3456 11.6782 18.1145 11.9303 17.6883L11.9307 17.6876L21.0705 2.15077L20.8676 1.7981C20.8676 1.79796 20.8677 1.79781 20.8677 1.79767L21.0708 2.15037C21.2885 1.78116 21.2897 1.33002 21.0768 0.963629ZM20.2538 0.731454L20.0498 0.377197L20.2537 0.731429C20.2537 0.731437 20.2537 0.731446 20.2538 0.731454ZM9.09101 6.68011L4.078 2.35274H16.6742L9.09101 6.68011ZM11.2908 14.8761L10.0688 8.38384L17.6669 4.05066L11.2908 14.8761Z" fill="#333333"/>
</svg>
