<svg width="70" height="70" viewBox="0 0 70 70" fill="none" xmlns="http://www.w3.org/2000/svg">
<path d="M21.875 54.6875C26.1034 54.6875 29.5312 51.2597 29.5312 47.0312C29.5312 42.8028 26.1034 39.375 21.875 39.375C17.6466 39.375 14.2188 42.8028 14.2188 47.0312C14.2188 51.2597 17.6466 54.6875 21.875 54.6875Z" stroke="white" stroke-width="3" stroke-linecap="round" stroke-linejoin="round"/>
<path d="M8.74922 61.2494C10.2776 59.212 12.2594 57.5584 14.5375 56.4195C16.8156 55.2805 19.3276 54.6876 21.8746 54.6875C24.4216 54.6874 26.9336 55.2803 29.2118 56.4191C31.49 57.558 33.4718 59.2115 35.0003 61.2488" stroke="white" stroke-width="3" stroke-linecap="round" stroke-linejoin="round"/>
<path d="M21.875 25.1562C26.1034 25.1562 29.5312 21.7284 29.5312 17.5C29.5312 13.2716 26.1034 9.84375 21.875 9.84375C17.6466 9.84375 14.2188 13.2716 14.2188 17.5C14.2188 21.7284 17.6466 25.1562 21.875 25.1562Z" stroke="white" stroke-width="3" stroke-linecap="round" stroke-linejoin="round"/>
<path d="M8.74922 31.7182C10.2776 29.6808 12.2594 28.0272 14.5375 26.8882C16.8156 25.7493 19.3276 25.1563 21.8746 25.1563C24.4216 25.1562 26.9336 25.749 29.2118 26.8879C31.49 28.0267 33.4718 29.6802 35.0003 31.7176" stroke="white" stroke-width="3" stroke-linecap="round" stroke-linejoin="round"/>
<path d="M48.125 54.6875C52.3534 54.6875 55.7812 51.2597 55.7812 47.0312C55.7812 42.8028 52.3534 39.375 48.125 39.375C43.8966 39.375 40.4688 42.8028 40.4688 47.0312C40.4688 51.2597 43.8966 54.6875 48.125 54.6875Z" stroke="white" stroke-width="3" stroke-linecap="round" stroke-linejoin="round"/>
<path d="M34.9992 61.2494C36.5276 59.212 38.5094 57.5584 40.7875 56.4195C43.0656 55.2805 45.5776 54.6876 48.1246 54.6875C50.6716 54.6874 53.1836 55.2803 55.4618 56.4191C57.74 57.558 59.7218 59.2115 61.2503 61.2488" stroke="white" stroke-width="3" stroke-linecap="round" stroke-linejoin="round"/>
<path d="M48.125 25.1562C52.3534 25.1562 55.7812 21.7284 55.7812 17.5C55.7812 13.2716 52.3534 9.84375 48.125 9.84375C43.8966 9.84375 40.4688 13.2716 40.4688 17.5C40.4688 21.7284 43.8966 25.1562 48.125 25.1562Z" stroke="white" stroke-width="3" stroke-linecap="round" stroke-linejoin="round"/>
<path d="M34.9992 31.7182C36.5276 29.6808 38.5094 28.0272 40.7875 26.8882C43.0656 25.7493 45.5776 25.1563 48.1246 25.1563C50.6716 25.1562 53.1836 25.749 55.4618 26.8879C57.74 28.0267 59.7218 29.6802 61.2503 31.7176" stroke="white" stroke-width="3" stroke-linecap="round" stroke-linejoin="round"/>
</svg>
